<svg id="visual" viewBox="0 0 900 600" width="900" height="600" xmlns="http://www.w3.org/2000/svg" xmlns:xlink="http://www.w3.org/1999/xlink" version="1.1"><rect x="0" y="0" width="900" height="600" fill="#ffffff"></rect><g transform="translate(965.8096994883488 592.8229383869387)"><path d="M230.1 -290.9C315.7 -202.5 414.4 -146.5 436.2 -69.9C458.1 6.7 403.1 103.8 355.5 223.1C307.9 342.3 267.7 483.6 186.9 512.6C106.1 541.6 -15.2 458.3 -131.6 399.4C-248 340.6 -359.6 306.3 -447.6 224.3C-535.7 142.3 -600.2 12.5 -561.1 -79.8C-522 -172.1 -379.3 -227 -268.5 -311C-157.7 -394.9 -78.8 -508 -3.3 -504.1C72.3 -500.2 144.6 -379.4 230.1 -290.9" fill="#ca0404"></path></g></svg>