<svg id="visual" viewBox="0 0 1280 600" width="1280" height="600" xmlns="http://www.w3.org/2000/svg" xmlns:xlink="http://www.w3.org/1999/xlink" version="1.1"><rect x="0" y="0" width="1280" height="600" fill="#ffffff"></rect><g transform="translate(1263.2158352945066 543.5988935770657)"><path d="M130.4 -172C183.7 -140.8 251.6 -122.3 288.6 -77.5C325.6 -32.7 331.6 38.5 306.7 94.8C281.7 151.1 225.8 192.4 169.5 225.2C113.2 257.9 56.6 281.9 -23.1 313.8C-102.9 345.6 -205.7 385.2 -250.6 348.7C-295.4 312.3 -282.3 199.9 -283 112.1C-283.7 24.4 -298.3 -38.6 -275.1 -83C-251.9 -127.4 -190.9 -153.1 -138.7 -184.6C-86.6 -216.2 -43.3 -253.6 -2.4 -250.3C38.6 -247.1 77.2 -203.2 130.4 -172" fill="#c90202"></path></g></svg>