<svg id="visual" viewBox="0 0 900 600" width="900" height="600" xmlns="http://www.w3.org/2000/svg" xmlns:xlink="http://www.w3.org/1999/xlink" version="1.1"><rect x="0" y="0" width="900" height="600" fill="#EDF2F4"></rect><defs><linearGradient id="grad1_0" x1="33.3%" y1="100%" x2="100%" y2="0%"><stop offset="20%" stop-color="#edf2f4" stop-opacity="1"></stop><stop offset="80%" stop-color="#edf2f4" stop-opacity="1"></stop></linearGradient></defs><defs><linearGradient id="grad2_0" x1="0%" y1="100%" x2="66.7%" y2="0%"><stop offset="20%" stop-color="#edf2f4" stop-opacity="1"></stop><stop offset="80%" stop-color="#edf2f4" stop-opacity="1"></stop></linearGradient></defs><g transform="translate(900, 600)"><path d="M-405.6 0C-356 -37.3 -306.4 -74.7 -286.4 -118.6C-266.4 -162.6 -276.1 -213.1 -260.2 -260.2C-244.3 -307.3 -202.9 -351.1 -155.2 -374.7C-107.6 -398.4 -53.8 -402 0 -405.6L0 0Z" fill="#ffffff"></path></g><g transform="translate(0, 0)"><path d="M405.6 0C361.4 33 317.2 65.9 307.7 127.4C298.2 188.9 323.4 279 286.8 286.8C250.2 294.6 151.9 220.3 93.8 226.4C35.7 232.4 17.8 319 0 405.6L0 0Z" fill="#ffffff"></path></g></svg>