<svg id="visual" viewBox="0 0 900 600" width="900" height="600" xmlns="http://www.w3.org/2000/svg" xmlns:xlink="http://www.w3.org/1999/xlink" version="1.1"><rect x="0" y="0" width="900" height="600" fill="#eff2f4"></rect><defs><linearGradient id="grad1_0" x1="33.3%" y1="100%" x2="100%" y2="0%"><stop offset="20%" stop-color="#eff2f4" stop-opacity="1"></stop><stop offset="80%" stop-color="#eff2f4" stop-opacity="1"></stop></linearGradient></defs><defs><linearGradient id="grad2_0" x1="0%" y1="100%" x2="66.7%" y2="0%"><stop offset="20%" stop-color="#eff2f4" stop-opacity="1"></stop><stop offset="80%" stop-color="#eff2f4" stop-opacity="1"></stop></linearGradient></defs><g transform="translate(900, 600)"><path d="M-189.3 0C-185.7 -35.5 -182.2 -71 -163.9 -94.6C-145.7 -118.3 -112.8 -130 -83 -143.8C-53.2 -157.6 -26.6 -173.4 0 -189.3L0 0Z" fill="#c01620"></path></g><g transform="translate(0, 0)"><path d="M189.3 0C190.3 43.5 191.4 87 163.9 94.6C136.5 102.3 80.6 74.2 48.5 84C16.4 93.8 8.2 141.6 0 189.3L0 0Z" fill="#c01620"></path></g></svg>