<svg id="visual" viewBox="0 0 1280 1000" width="1280" height="1000" xmlns="http://www.w3.org/2000/svg" xmlns:xlink="http://www.w3.org/1999/xlink" version="1.1"><path d="M0 61L19.3 62.7C38.7 64.3 77.3 67.7 116.2 81C155 94.3 194 117.7 232.8 116C271.7 114.3 310.3 87.7 349 86C387.7 84.3 426.3 107.7 465.2 112.7C504 117.7 543 104.3 581.8 106C620.7 107.7 659.3 124.3 698.2 131C737 137.7 776 134.3 814.8 132.7C853.7 131 892.3 131 931 119.3C969.7 107.7 1008.3 84.3 1047.2 71C1086 57.7 1125 54.3 1163.8 69.3C1202.7 84.3 1241.3 117.7 1260.7 134.3L1280 151L1280 0L1260.7 0C1241.3 0 1202.7 0 1163.8 0C1125 0 1086 0 1047.2 0C1008.3 0 969.7 0 931 0C892.3 0 853.7 0 814.8 0C776 0 737 0 698.2 0C659.3 0 620.7 0 581.8 0C543 0 504 0 465.2 0C426.3 0 387.7 0 349 0C310.3 0 271.7 0 232.8 0C194 0 155 0 116.2 0C77.3 0 38.7 0 19.3 0L0 0Z" fill="#d9e4e8"></path><path d="M0 371L19.3 361C38.7 351 77.3 331 116.2 337.7C155 344.3 194 377.7 232.8 369.3C271.7 361 310.3 311 349 302.7C387.7 294.3 426.3 327.7 465.2 319.3C504 311 543 261 581.8 252.7C620.7 244.3 659.3 277.7 698.2 296C737 314.3 776 317.7 814.8 341C853.7 364.3 892.3 407.7 931 389.3C969.7 371 1008.3 291 1047.2 264.3C1086 237.7 1125 264.3 1163.8 282.7C1202.7 301 1241.3 311 1260.7 316L1280 321L1280 149L1260.7 132.3C1241.3 115.7 1202.7 82.3 1163.8 67.3C1125 52.3 1086 55.7 1047.2 69C1008.3 82.3 969.7 105.7 931 117.3C892.3 129 853.7 129 814.8 130.7C776 132.3 737 135.7 698.2 129C659.3 122.3 620.7 105.7 581.8 104C543 102.3 504 115.7 465.2 110.7C426.3 105.7 387.7 82.3 349 84C310.3 85.7 271.7 112.3 232.8 114C194 115.7 155 92.3 116.2 79C77.3 65.7 38.7 62.3 19.3 60.7L0 59Z" fill="#e4ecef"></path><path d="M0 591L19.3 579.3C38.7 567.7 77.3 544.3 116.2 536C155 527.7 194 534.3 232.8 519.3C271.7 504.3 310.3 467.7 349 461C387.7 454.3 426.3 477.7 465.2 462.7C504 447.7 543 394.3 581.8 394.3C620.7 394.3 659.3 447.7 698.2 464.3C737 481 776 461 814.8 467.7C853.7 474.3 892.3 507.7 931 494.3C969.7 481 1008.3 421 1047.2 396C1086 371 1125 381 1163.8 394.3C1202.7 407.7 1241.3 424.3 1260.7 432.7L1280 441L1280 319L1260.7 314C1241.3 309 1202.7 299 1163.8 280.7C1125 262.3 1086 235.7 1047.2 262.3C1008.3 289 969.7 369 931 387.3C892.3 405.7 853.7 362.3 814.8 339C776 315.7 737 312.3 698.2 294C659.3 275.7 620.7 242.3 581.8 250.7C543 259 504 309 465.2 317.3C426.3 325.7 387.7 292.3 349 300.7C310.3 309 271.7 359 232.8 367.3C194 375.7 155 342.3 116.2 335.7C77.3 329 38.7 349 19.3 359L0 369Z" fill="#eef2f4"></path><path d="M0 631L19.3 624.3C38.7 617.7 77.3 604.3 116.2 601C155 597.7 194 604.3 232.8 597.7C271.7 591 310.3 571 349 557.7C387.7 544.3 426.3 537.7 465.2 516C504 494.3 543 457.7 581.8 461C620.7 464.3 659.3 507.7 698.2 524.3C737 541 776 531 814.8 536C853.7 541 892.3 561 931 542.7C969.7 524.3 1008.3 467.7 1047.2 441C1086 414.3 1125 417.7 1163.8 434.3C1202.7 451 1241.3 481 1260.7 496L1280 511L1280 439L1260.7 430.7C1241.3 422.3 1202.7 405.7 1163.8 392.3C1125 379 1086 369 1047.2 394C1008.3 419 969.7 479 931 492.3C892.3 505.7 853.7 472.3 814.8 465.7C776 459 737 479 698.2 462.3C659.3 445.7 620.7 392.3 581.8 392.3C543 392.3 504 445.7 465.2 460.7C426.3 475.7 387.7 452.3 349 459C310.3 465.7 271.7 502.3 232.8 517.3C194 532.3 155 525.7 116.2 534C77.3 542.3 38.7 565.7 19.3 577.3L0 589Z" fill="#f1f5f7"></path><path d="M0 681L19.3 674.3C38.7 667.7 77.3 654.3 116.2 652.7C155 651 194 661 232.8 651C271.7 641 310.3 611 349 594.3C387.7 577.7 426.3 574.3 465.2 559.3C504 544.3 543 517.7 581.8 519.3C620.7 521 659.3 551 698.2 562.7C737 574.3 776 567.7 814.8 577.7C853.7 587.7 892.3 614.3 931 599.3C969.7 584.3 1008.3 527.7 1047.2 504.3C1086 481 1125 491 1163.8 504.3C1202.7 517.7 1241.3 534.3 1260.7 542.7L1280 551L1280 509L1260.7 494C1241.3 479 1202.7 449 1163.8 432.3C1125 415.7 1086 412.3 1047.2 439C1008.3 465.7 969.7 522.3 931 540.7C892.3 559 853.7 539 814.8 534C776 529 737 539 698.2 522.3C659.3 505.7 620.7 462.3 581.8 459C543 455.7 504 492.3 465.2 514C426.3 535.7 387.7 542.3 349 555.7C310.3 569 271.7 589 232.8 595.7C194 602.3 155 595.7 116.2 599C77.3 602.3 38.7 615.7 19.3 622.3L0 629Z" fill="#f3f6f8"></path><path d="M0 721L19.3 714.3C38.7 707.7 77.3 694.3 116.2 691C155 687.7 194 694.3 232.8 682.7C271.7 671 310.3 641 349 627.7C387.7 614.3 426.3 617.7 465.2 607.7C504 597.7 543 574.3 581.8 577.7C620.7 581 659.3 611 698.2 619.3C737 627.7 776 614.3 814.8 626C853.7 637.7 892.3 674.3 931 656C969.7 637.7 1008.3 564.3 1047.2 541C1086 517.7 1125 544.3 1163.8 561C1202.7 577.7 1241.3 584.3 1260.7 587.7L1280 591L1280 549L1260.7 540.7C1241.3 532.3 1202.7 515.7 1163.8 502.3C1125 489 1086 479 1047.2 502.3C1008.3 525.7 969.7 582.3 931 597.3C892.3 612.3 853.7 585.7 814.8 575.7C776 565.7 737 572.3 698.2 560.7C659.3 549 620.7 519 581.8 517.3C543 515.7 504 542.3 465.2 557.3C426.3 572.3 387.7 575.7 349 592.3C310.3 609 271.7 639 232.8 649C194 659 155 649 116.2 650.7C77.3 652.3 38.7 665.7 19.3 672.3L0 679Z" fill="#f3f6f8"></path><path d="M0 851L19.3 847.7C38.7 844.3 77.3 837.7 116.2 839.3C155 841 194 851 232.8 854.3C271.7 857.7 310.3 854.3 349 847.7C387.7 841 426.3 831 465.2 826C504 821 543 821 581.8 821C620.7 821 659.3 821 698.2 824.3C737 827.7 776 834.3 814.8 836C853.7 837.7 892.3 834.3 931 829.3C969.7 824.3 1008.3 817.7 1047.2 812.7C1086 807.7 1125 804.3 1163.8 806C1202.7 807.7 1241.3 814.3 1260.7 817.7L1280 821L1280 589L1260.7 585.7C1241.3 582.3 1202.7 575.7 1163.8 559C1125 542.3 1086 515.7 1047.2 539C1008.3 562.3 969.7 635.7 931 654C892.3 672.3 853.7 635.7 814.8 624C776 612.3 737 625.7 698.2 617.3C659.3 609 620.7 579 581.8 575.7C543 572.3 504 595.7 465.2 605.7C426.3 615.7 387.7 612.3 349 625.7C310.3 639 271.7 669 232.8 680.7C194 692.3 155 685.7 116.2 689C77.3 692.3 38.7 705.7 19.3 712.3L0 719Z" fill="#f1f5f7"></path><path d="M0 921L19.3 914.3C38.7 907.7 77.3 894.3 116.2 891C155 887.7 194 894.3 232.8 904.3C271.7 914.3 310.3 927.7 349 921C387.7 914.3 426.3 887.7 465.2 879.3C504 871 543 881 581.8 896C620.7 911 659.3 931 698.2 934.3C737 937.7 776 924.3 814.8 922.7C853.7 921 892.3 931 931 927.7C969.7 924.3 1008.3 907.7 1047.2 896C1086 884.3 1125 877.7 1163.8 887.7C1202.7 897.7 1241.3 924.3 1260.7 937.7L1280 951L1280 819L1260.7 815.7C1241.3 812.3 1202.7 805.7 1163.8 804C1125 802.3 1086 805.7 1047.2 810.7C1008.3 815.7 969.7 822.3 931 827.3C892.3 832.3 853.7 835.7 814.8 834C776 832.3 737 825.7 698.2 822.3C659.3 819 620.7 819 581.8 819C543 819 504 819 465.2 824C426.3 829 387.7 839 349 845.7C310.3 852.3 271.7 855.7 232.8 852.3C194 849 155 839 116.2 837.3C77.3 835.7 38.7 842.3 19.3 845.7L0 849Z" fill="#eef2f4"></path><path d="M0 941L19.3 941C38.7 941 77.3 941 116.2 942.7C155 944.3 194 947.7 232.8 951C271.7 954.3 310.3 957.7 349 952.7C387.7 947.7 426.3 934.3 465.2 929.3C504 924.3 543 927.7 581.8 936C620.7 944.3 659.3 957.7 698.2 959.3C737 961 776 951 814.8 949.3C853.7 947.7 892.3 954.3 931 954.3C969.7 954.3 1008.3 947.7 1047.2 942.7C1086 937.7 1125 934.3 1163.8 939.3C1202.7 944.3 1241.3 957.7 1260.7 964.3L1280 971L1280 949L1260.7 935.7C1241.3 922.3 1202.7 895.7 1163.8 885.7C1125 875.7 1086 882.3 1047.2 894C1008.3 905.7 969.7 922.3 931 925.7C892.3 929 853.7 919 814.8 920.7C776 922.3 737 935.7 698.2 932.3C659.3 929 620.7 909 581.8 894C543 879 504 869 465.2 877.3C426.3 885.7 387.7 912.3 349 919C310.3 925.7 271.7 912.3 232.8 902.3C194 892.3 155 885.7 116.2 889C77.3 892.3 38.7 905.7 19.3 912.3L0 919Z" fill="#e4ecef"></path><path d="M0 1001L19.3 1001C38.7 1001 77.3 1001 116.2 1001C155 1001 194 1001 232.8 1001C271.7 1001 310.3 1001 349 1001C387.7 1001 426.3 1001 465.2 1001C504 1001 543 1001 581.8 1001C620.7 1001 659.3 1001 698.2 1001C737 1001 776 1001 814.8 1001C853.7 1001 892.3 1001 931 1001C969.7 1001 1008.3 1001 1047.2 1001C1086 1001 1125 1001 1163.8 1001C1202.7 1001 1241.3 1001 1260.7 1001L1280 1001L1280 969L1260.7 962.3C1241.3 955.7 1202.7 942.3 1163.8 937.3C1125 932.3 1086 935.7 1047.2 940.7C1008.3 945.7 969.7 952.3 931 952.3C892.3 952.3 853.7 945.7 814.8 947.3C776 949 737 959 698.2 957.3C659.3 955.7 620.7 942.3 581.8 934C543 925.7 504 922.3 465.2 927.3C426.3 932.3 387.7 945.7 349 950.7C310.3 955.7 271.7 952.3 232.8 949C194 945.7 155 942.3 116.2 940.7C77.3 939 38.7 939 19.3 939L0 939Z" fill="#d9e4e8"></path></svg>