<svg id="visual" viewBox="0 0 1280 540" width="1280" height="840" xmlns="http://www.w3.org/2000/svg" xmlns:xlink="http://www.w3.org/1999/xlink" version="1.1"><path d="M0 60L19.3 56.5C38.7 53 77.3 46 116.2 41.5C155 37 194 35 232.8 40.3C271.7 45.7 310.3 58.3 349 64.7C387.7 71 426.3 71 465.2 69.2C504 67.3 543 63.7 581.8 63.7C620.7 63.7 659.3 67.3 698.2 62.8C737 58.3 776 45.7 814.8 41.2C853.7 36.7 892.3 40.3 931 46.7C969.7 53 1008.3 62 1047.2 67.5C1086 73 1125 75 1163.8 67C1202.7 59 1241.3 41 1260.7 32L1280 23L1280 0L1260.7 0C1241.3 0 1202.7 0 1163.8 0C1125 0 1086 0 1047.2 0C1008.3 0 969.7 0 931 0C892.3 0 853.7 0 814.8 0C776 0 737 0 698.2 0C659.3 0 620.7 0 581.8 0C543 0 504 0 465.2 0C426.3 0 387.7 0 349 0C310.3 0 271.7 0 232.8 0C194 0 155 0 116.2 0C77.3 0 38.7 0 19.3 0L0 0Z" fill="#d9e4e8"></path><path d="M0 98L19.3 93.5C38.7 89 77.3 80 116.2 74.7C155 69.3 194 67.7 232.8 74.8C271.7 82 310.3 98 349 105.2C387.7 112.3 426.3 110.7 465.2 108C504 105.3 543 101.7 581.8 100.8C620.7 100 659.3 102 698.2 98.5C737 95 776 86 814.8 79.7C853.7 73.3 892.3 69.7 931 71.3C969.7 73 1008.3 80 1047.2 86.3C1086 92.7 1125 98.3 1163.8 93.8C1202.7 89.3 1241.3 74.7 1260.7 67.3L1280 60L1280 21L1260.7 30C1241.3 39 1202.7 57 1163.8 65C1125 73 1086 71 1047.2 65.5C1008.3 60 969.7 51 931 44.7C892.3 38.3 853.7 34.7 814.8 39.2C776 43.7 737 56.3 698.2 60.8C659.3 65.3 620.7 61.7 581.8 61.7C543 61.7 504 65.3 465.2 67.2C426.3 69 387.7 69 349 62.7C310.3 56.3 271.7 43.7 232.8 38.3C194 33 155 35 116.2 39.5C77.3 44 38.7 51 19.3 54.5L0 58Z" fill="#e4ecef"></path><path d="M0 136L19.3 130.7C38.7 125.3 77.3 114.7 116.2 105.7C155 96.7 194 89.3 232.8 94.7C271.7 100 310.3 118 349 125.2C387.7 132.3 426.3 128.7 465.2 127.8C504 127 543 129 581.8 130.8C620.7 132.7 659.3 134.3 698.2 132.5C737 130.7 776 125.3 814.8 120.8C853.7 116.3 892.3 112.7 931 113.5C969.7 114.3 1008.3 119.7 1047.2 123.3C1086 127 1125 129 1163.8 123.7C1202.7 118.3 1241.3 105.7 1260.7 99.3L1280 93L1280 58L1260.7 65.3C1241.3 72.7 1202.7 87.3 1163.8 91.8C1125 96.3 1086 90.7 1047.2 84.3C1008.3 78 969.7 71 931 69.3C892.3 67.7 853.7 71.3 814.8 77.7C776 84 737 93 698.2 96.5C659.3 100 620.7 98 581.8 98.8C543 99.7 504 103.3 465.2 106C426.3 108.7 387.7 110.3 349 103.2C310.3 96 271.7 80 232.8 72.8C194 65.7 155 67.3 116.2 72.7C77.3 78 38.7 87 19.3 91.5L0 96Z" fill="#eef2f4"></path><path d="M0 168L19.3 160C38.7 152 77.3 136 116.2 126.2C155 116.3 194 112.7 232.8 118C271.7 123.3 310.3 137.7 349 144C387.7 150.3 426.3 148.7 465.2 149.7C504 150.7 543 154.3 581.8 158.8C620.7 163.3 659.3 168.7 698.2 164.2C737 159.7 776 145.3 814.8 140.8C853.7 136.3 892.3 141.7 931 142.5C969.7 143.3 1008.3 139.7 1047.2 138.7C1086 137.7 1125 139.3 1163.8 137.5C1202.7 135.7 1241.3 130.3 1260.7 127.7L1280 125L1280 91L1260.7 97.3C1241.3 103.7 1202.7 116.3 1163.8 121.7C1125 127 1086 125 1047.2 121.3C1008.3 117.7 969.7 112.3 931 111.5C892.3 110.7 853.7 114.3 814.8 118.8C776 123.3 737 128.7 698.2 130.5C659.3 132.3 620.7 130.7 581.8 128.8C543 127 504 125 465.2 125.8C426.3 126.7 387.7 130.3 349 123.2C310.3 116 271.7 98 232.8 92.7C194 87.3 155 94.7 116.2 103.7C77.3 112.7 38.7 123.3 19.3 128.7L0 134Z" fill="#f1f5f7"></path><path d="M0 222L19.3 220.3C38.7 218.7 77.3 215.3 116.2 201.8C155 188.3 194 164.7 232.8 167.3C271.7 170 310.3 199 349 207.2C387.7 215.3 426.3 202.7 465.2 205.3C504 208 543 226 581.8 229.7C620.7 233.3 659.3 222.7 698.2 214.5C737 206.3 776 200.7 814.8 205.2C853.7 209.7 892.3 224.3 931 230.7C969.7 237 1008.3 235 1047.2 233.2C1086 231.3 1125 229.7 1163.8 217.2C1202.7 204.7 1241.3 181.3 1260.7 169.7L1280 158L1280 123L1260.7 125.7C1241.3 128.3 1202.7 133.7 1163.8 135.5C1125 137.3 1086 135.7 1047.2 136.7C1008.3 137.7 969.7 141.3 931 140.5C892.3 139.7 853.7 134.3 814.8 138.8C776 143.3 737 157.7 698.2 162.2C659.3 166.7 620.7 161.3 581.8 156.8C543 152.3 504 148.7 465.2 147.7C426.3 146.7 387.7 148.3 349 142C310.3 135.7 271.7 121.3 232.8 116C194 110.7 155 114.3 116.2 124.2C77.3 134 38.7 150 19.3 158L0 166Z" fill="#f3f6f8"></path><path d="M0 244L19.3 245.8C38.7 247.7 77.3 251.3 116.2 238.7C155 226 194 197 232.8 199.7C271.7 202.3 310.3 236.7 349 244.8C387.7 253 426.3 235 465.2 238.7C504 242.3 543 267.7 581.8 273C620.7 278.3 659.3 263.7 698.2 255.5C737 247.3 776 245.7 814.8 252C853.7 258.3 892.3 272.7 931 279.8C969.7 287 1008.3 287 1047.2 283.5C1086 280 1125 273 1163.8 259.5C1202.7 246 1241.3 226 1260.7 216L1280 206L1280 156L1260.7 167.7C1241.3 179.3 1202.7 202.7 1163.8 215.2C1125 227.7 1086 229.3 1047.2 231.2C1008.3 233 969.7 235 931 228.7C892.3 222.3 853.7 207.7 814.8 203.2C776 198.7 737 204.3 698.2 212.5C659.3 220.7 620.7 231.3 581.8 227.7C543 224 504 206 465.2 203.3C426.3 200.7 387.7 213.3 349 205.2C310.3 197 271.7 168 232.8 165.3C194 162.7 155 186.3 116.2 199.8C77.3 213.3 38.7 216.7 19.3 218.3L0 220Z" fill="#f3f6f8"></path><path d="M0 330L19.3 331C38.7 332 77.3 334 116.2 326.8C155 319.7 194 303.3 232.8 315.8C271.7 328.3 310.3 369.7 349 380.5C387.7 391.3 426.3 371.7 465.2 369C504 366.3 543 380.7 581.8 378C620.7 375.3 659.3 355.7 698.2 344.8C737 334 776 332 814.8 339.2C853.7 346.3 892.3 362.7 931 370.8C969.7 379 1008.3 379 1047.2 383.5C1086 388 1125 397 1163.8 379C1202.7 361 1241.3 316 1260.7 293.5L1280 271L1280 204L1260.7 214C1241.3 224 1202.7 244 1163.8 257.5C1125 271 1086 278 1047.2 281.5C1008.3 285 969.7 285 931 277.8C892.3 270.7 853.7 256.3 814.8 250C776 243.7 737 245.3 698.2 253.5C659.3 261.7 620.7 276.3 581.8 271C543 265.7 504 240.3 465.2 236.7C426.3 233 387.7 251 349 242.8C310.3 234.7 271.7 200.3 232.8 197.7C194 195 155 224 116.2 236.7C77.3 249.3 38.7 245.7 19.3 243.8L0 242Z" fill="#f1f5f7"></path><path d="M0 487L19.3 484.3C38.7 481.7 77.3 476.3 116.2 464.7C155 453 194 435 232.8 434C271.7 433 310.3 449 349 455.3C387.7 461.7 426.3 458.3 465.2 460.2C504 462 543 469 581.8 470.7C620.7 472.3 659.3 468.7 698.2 469.7C737 470.7 776 476.3 814.8 475.5C853.7 474.7 892.3 467.3 931 466.3C969.7 465.3 1008.3 470.7 1047.2 470.7C1086 470.7 1125 465.3 1163.8 463.5C1202.7 461.7 1241.3 463.3 1260.7 464.2L1280 465L1280 269L1260.7 291.5C1241.3 314 1202.7 359 1163.8 377C1125 395 1086 386 1047.2 381.5C1008.3 377 969.7 377 931 368.8C892.3 360.7 853.7 344.3 814.8 337.2C776 330 737 332 698.2 342.8C659.3 353.7 620.7 373.3 581.8 376C543 378.7 504 364.3 465.2 367C426.3 369.7 387.7 389.3 349 378.5C310.3 367.7 271.7 326.3 232.8 313.8C194 301.3 155 317.7 116.2 324.8C77.3 332 38.7 330 19.3 329L0 328Z" fill="#eef2f4"></path><path d="M0 514L19.3 514C38.7 514 77.3 514 116.2 507.7C155 501.3 194 488.7 232.8 486C271.7 483.3 310.3 490.7 349 496.2C387.7 501.7 426.3 505.3 465.2 508C504 510.7 543 512.3 581.8 509.5C620.7 506.7 659.3 499.3 698.2 497.5C737 495.7 776 499.3 814.8 499.3C853.7 499.3 892.3 495.7 931 494.8C969.7 494 1008.3 496 1047.2 497.8C1086 499.7 1125 501.3 1163.8 501.3C1202.7 501.3 1241.3 499.7 1260.7 498.8L1280 498L1280 463L1260.7 462.2C1241.3 461.3 1202.7 459.7 1163.8 461.5C1125 463.3 1086 468.7 1047.2 468.7C1008.3 468.7 969.7 463.3 931 464.3C892.3 465.3 853.7 472.7 814.8 473.5C776 474.3 737 468.7 698.2 467.7C659.3 466.7 620.7 470.3 581.8 468.7C543 467 504 460 465.2 458.2C426.3 456.3 387.7 459.7 349 453.3C310.3 447 271.7 431 232.8 432C194 433 155 451 116.2 462.7C77.3 474.3 38.7 479.7 19.3 482.3L0 485Z" fill="#e4ecef"></path><path d="M0 541L19.3 541C38.7 541 77.3 541 116.2 541C155 541 194 541 232.8 541C271.7 541 310.3 541 349 541C387.7 541 426.3 541 465.2 541C504 541 543 541 581.8 541C620.7 541 659.3 541 698.2 541C737 541 776 541 814.8 541C853.7 541 892.3 541 931 541C969.7 541 1008.3 541 1047.2 541C1086 541 1125 541 1163.8 541C1202.7 541 1241.3 541 1260.7 541L1280 541L1280 496L1260.7 496.8C1241.3 497.7 1202.7 499.3 1163.8 499.3C1125 499.3 1086 497.7 1047.2 495.8C1008.3 494 969.7 492 931 492.8C892.3 493.7 853.7 497.3 814.8 497.3C776 497.3 737 493.7 698.2 495.5C659.3 497.3 620.7 504.7 581.8 507.5C543 510.3 504 508.7 465.2 506C426.3 503.3 387.7 499.7 349 494.2C310.3 488.7 271.7 481.3 232.8 484C194 486.7 155 499.3 116.2 505.7C77.3 512 38.7 512 19.3 512L0 512Z" fill="#d9e4e8"></path></svg>