<svg id="visual" viewBox="0 0 1800 900" width="1800" height="900" xmlns="http://www.w3.org/2000/svg" xmlns:xlink="http://www.w3.org/1999/xlink" version="1.1"><path d="M0 28L60 32.5C120 37 240 46 360 47.5C480 49 600 43 720 41.5C840 40 960 43 1080 40C1200 37 1320 28 1440 28C1560 28 1680 37 1740 41.5L1800 46L1800 0L1740 0C1680 0 1560 0 1440 0C1320 0 1200 0 1080 0C960 0 840 0 720 0C600 0 480 0 360 0C240 0 120 0 60 0L0 0Z" fill="#ffffff"></path><path d="M0 55L60 62.5C120 70 240 85 360 86.5C480 88 600 76 720 76C840 76 960 88 1080 91C1200 94 1320 88 1440 86.5C1560 85 1680 88 1740 89.5L1800 91L1800 44L1740 39.5C1680 35 1560 26 1440 26C1320 26 1200 35 1080 38C960 41 840 38 720 39.5C600 41 480 47 360 45.5C240 44 120 35 60 30.5L0 26Z" fill="#ffffff"></path><path d="M0 172L60 191.5C120 211 240 250 360 254.5C480 259 600 229 720 238C840 247 960 295 1080 304C1200 313 1320 283 1440 277C1560 271 1680 289 1740 298L1800 307L1800 89L1740 87.5C1680 86 1560 83 1440 84.5C1320 86 1200 92 1080 89C960 86 840 74 720 74C600 74 480 86 360 84.5C240 83 120 68 60 60.5L0 53Z" fill="#ffffff"></path><path d="M0 262L60 274C120 286 240 310 360 307C480 304 600 274 720 281.5C840 289 960 334 1080 344.5C1200 355 1320 331 1440 328C1560 325 1680 343 1740 352L1800 361L1800 305L1740 296C1680 287 1560 269 1440 275C1320 281 1200 311 1080 302C960 293 840 245 720 236C600 227 480 257 360 252.5C240 248 120 209 60 189.5L0 170Z" fill="#f9f9f9"></path><path d="M0 361L60 370C120 379 240 397 360 406C480 415 600 415 720 427C840 439 960 463 1080 464.5C1200 466 1320 445 1440 436C1560 427 1680 430 1740 431.5L1800 433L1800 359L1740 350C1680 341 1560 323 1440 326C1320 329 1200 353 1080 342.5C960 332 840 287 720 279.5C600 272 480 302 360 305C240 308 120 284 60 272L0 260Z" fill="#f1f1f1"></path><path d="M0 406L60 415C120 424 240 442 360 448C480 454 600 448 720 461.5C840 475 960 508 1080 518.5C1200 529 1320 517 1440 512.5C1560 508 1680 511 1740 512.5L1800 514L1800 431L1740 429.5C1680 428 1560 425 1440 434C1320 443 1200 464 1080 462.5C960 461 840 437 720 425C600 413 480 413 360 404C240 395 120 377 60 368L0 359Z" fill="#eeeeee"></path><path d="M0 433L60 445C120 457 240 481 360 493C480 505 600 505 720 517C840 529 960 553 1080 559C1200 565 1320 553 1440 553C1560 553 1680 565 1740 571L1800 577L1800 512L1740 510.5C1680 509 1560 506 1440 510.5C1320 515 1200 527 1080 516.5C960 506 840 473 720 459.5C600 446 480 452 360 446C240 440 120 422 60 413L0 404Z" fill="#eeeeee"></path><path d="M0 541L60 554.5C120 568 240 595 360 598C480 601 600 580 720 581.5C840 583 960 607 1080 610C1200 613 1320 595 1440 602.5C1560 610 1680 643 1740 659.5L1800 676L1800 575L1740 569C1680 563 1560 551 1440 551C1320 551 1200 563 1080 557C960 551 840 527 720 515C600 503 480 503 360 491C240 479 120 455 60 443L0 431Z" fill="#f1f1f1"></path><path d="M0 568L60 584.5C120 601 240 634 360 637C480 640 600 613 720 610C840 607 960 628 1080 634C1200 640 1320 631 1440 638.5C1560 646 1680 670 1740 682L1800 694L1800 674L1740 657.5C1680 641 1560 608 1440 600.5C1320 593 1200 611 1080 608C960 605 840 581 720 579.5C600 578 480 599 360 596C240 593 120 566 60 552.5L0 539Z" fill="#f9f9f9"></path><path d="M0 613L60 629.5C120 646 240 679 360 677.5C480 676 600 640 720 634C840 628 960 652 1080 662.5C1200 673 1320 670 1440 679C1560 688 1680 709 1740 719.5L1800 730L1800 692L1740 680C1680 668 1560 644 1440 636.5C1320 629 1200 638 1080 632C960 626 840 605 720 608C600 611 480 638 360 635C240 632 120 599 60 582.5L0 566Z" fill="#ffffff"></path><path d="M0 829L60 832C120 835 240 841 360 841C480 841 600 835 720 833.5C840 832 960 835 1080 836.5C1200 838 1320 838 1440 845.5C1560 853 1680 868 1740 875.5L1800 883L1800 728L1740 717.5C1680 707 1560 686 1440 677C1320 668 1200 671 1080 660.5C960 650 840 626 720 632C600 638 480 674 360 675.5C240 677 120 644 60 627.5L0 611Z" fill="#ffffff"></path><path d="M0 901L60 901C120 901 240 901 360 901C480 901 600 901 720 901C840 901 960 901 1080 901C1200 901 1320 901 1440 901C1560 901 1680 901 1740 901L1800 901L1800 881L1740 873.5C1680 866 1560 851 1440 843.5C1320 836 1200 836 1080 834.5C960 833 840 830 720 831.5C600 833 480 839 360 839C240 839 120 833 60 830L0 827Z" fill="#ffffff"></path></svg>