<svg id="visual" viewBox="0 0 1400 600" width="1400" height="600" xmlns="http://www.w3.org/2000/svg" xmlns:xlink="http://www.w3.org/1999/xlink" version="1.1"><path d="M0 468L29.2 456.3C58.3 444.7 116.7 421.3 175 424.8C233.3 428.3 291.7 458.7 350 470.5C408.3 482.3 466.7 475.7 525 467.8C583.3 460 641.7 451 700 435C758.3 419 816.7 396 875 396.5C933.3 397 991.7 421 1050 439.3C1108.3 457.7 1166.7 470.3 1225 479.7C1283.3 489 1341.7 495 1370.8 498L1400 501L1400 601L1370.8 601C1341.7 601 1283.3 601 1225 601C1166.7 601 1108.3 601 1050 601C991.7 601 933.3 601 875 601C816.7 601 758.3 601 700 601C641.7 601 583.3 601 525 601C466.7 601 408.3 601 350 601C291.7 601 233.3 601 175 601C116.7 601 58.3 601 29.2 601L0 601Z" fill="#cc0606" stroke-linecap="round" stroke-linejoin="miter"></path></svg>