<svg id="visual" viewBox="0 0 900 450" width="900" height="450" xmlns="http://www.w3.org/2000/svg" xmlns:xlink="http://www.w3.org/1999/xlink" version="1.1"><path d="M0 351L18.8 342.2C37.7 333.3 75.3 315.7 112.8 318.3C150.3 321 187.7 344 225.2 353C262.7 362 300.3 357 337.8 351C375.3 345 412.7 338 450.2 325.8C487.7 313.7 525.3 296.3 562.8 296.8C600.3 297.3 637.7 315.7 675.2 329.5C712.7 343.3 750.3 352.7 787.8 359.7C825.3 366.7 862.7 371.3 881.3 373.7L900 376L900 451L881.3 451C862.7 451 825.3 451 787.8 451C750.3 451 712.7 451 675.2 451C637.7 451 600.3 451 562.8 451C525.3 451 487.7 451 450.2 451C412.7 451 375.3 451 337.8 451C300.3 451 262.7 451 225.2 451C187.7 451 150.3 451 112.8 451C75.3 451 37.7 451 18.8 451L0 451Z" fill="#cc0606" stroke-linecap="round" stroke-linejoin="miter"></path></svg>